<svg xmlns="http://www.w3.org/2000/svg" xmlns:xlink="http://www.w3.org/1999/xlink" width="200" height="200" class="icon" p-id="6615" t="1552895639880" version="1.1" viewBox="0 0 1024 1024"><defs><style type="text/css"/></defs><path fill="#000" d="M102.4 204.8m25.6 0l460.8 0q25.6 0 25.6 25.6l0 0q0 25.6-25.6 25.6l-460.8 0q-25.6 0-25.6-25.6l0 0q0-25.6 25.6-25.6Z" p-id="6616"/><path fill="#000" d="M102.4 614.4m25.6 0l460.8 0q25.6 0 25.6 25.6l0 0q0 25.6-25.6 25.6l-460.8 0q-25.6 0-25.6-25.6l0 0q0-25.6 25.6-25.6Z" p-id="6617"/><path fill="#000" d="M102.4 819.2m25.6 0l768 0q25.6 0 25.6 25.6l0 0q0 25.6-25.6 25.6l-768 0q-25.6 0-25.6-25.6l0 0q0-25.6 25.6-25.6Z" p-id="6618"/><path fill="#000" d="M102.4 409.6m25.6 0l665.6 0q25.6 0 25.6 25.6l0 0q0 25.6-25.6 25.6l-665.6 0q-25.6 0-25.6-25.6l0 0q0-25.6 25.6-25.6Z" p-id="6619"/></svg>