<svg xmlns="http://www.w3.org/2000/svg" xmlns:xlink="http://www.w3.org/1999/xlink" width="200" height="200" class="icon" p-id="2600" t="1554467898300" version="1.1" viewBox="0 0 1024 1024"><defs><style type="text/css"/></defs><path fill="#000" d="M204.8 358.4a51.2 51.2 0 0 0-51.2 51.2v409.6a51.2 51.2 0 0 0 51.2 51.2h409.6a51.2 51.2 0 0 0 51.2-51.2V409.6a51.2 51.2 0 0 0-51.2-51.2H204.8z m0-51.2h409.6a102.4 102.4 0 0 1 102.4 102.4v409.6a102.4 102.4 0 0 1-102.4 102.4H204.8a102.4 102.4 0 0 1-102.4-102.4V409.6a102.4 102.4 0 0 1 102.4-102.4z" p-id="2601"/><path fill="#000" d="M766.1568 716.8H819.2a102.4 102.4 0 0 0 102.4-102.4V204.8a102.4 102.4 0 0 0-102.4-102.4H409.6a102.4 102.4 0 0 0-102.4 102.4v49.5104h51.2V204.8a51.2 51.2 0 0 1 51.2-51.2h409.6a51.2 51.2 0 0 1 51.2 51.2v409.6a51.2 51.2 0 0 1-51.2 51.2h-53.0432v51.2z" p-id="2602"/></svg>