<svg xmlns="http://www.w3.org/2000/svg" xmlns:xlink="http://www.w3.org/1999/xlink" width="200" height="200" class="icon" p-id="4534" t="1552895485079" version="1.1" viewBox="0 0 1024 1024"><defs><style type="text/css"/></defs><path fill="#000" d="M870.4 691.2v51.2h-252.2624v-51.2H870.4z m-409.6 0v51.2H128V307.2A128 128 0 0 1 256 179.2h211.1488v51.2H256A76.8 76.8 0 0 0 179.2 307.2v384H460.8z" p-id="4535"/><path fill="#000" d="M512 256h51.2v409.6h-51.2z" p-id="4536"/><path fill="#000" d="M537.6 691.2a51.2 51.2 0 1 0 0 102.4 51.2 51.2 0 0 0 0-102.4z m0-51.2a102.4 102.4 0 1 1 0 204.8 102.4 102.4 0 0 1 0-204.8z" p-id="4537"/><path fill="#000" d="M768 640m76.8 0l0 0q76.8 0 76.8 76.8l0 0q0 76.8-76.8 76.8l0 0q-76.8 0-76.8-76.8l0 0q0-76.8 76.8-76.8Z" p-id="4538"/><path fill="#000" d="M76.8 640m76.8 0l0 0q76.8 0 76.8 76.8l0 0q0 76.8-76.8 76.8l0 0q-76.8 0-76.8-76.8l0 0q0-76.8 76.8-76.8Z" p-id="4539"/><path fill="#000" d="M537.6 281.6a102.4 102.4 0 1 1 0-204.8 102.4 102.4 0 0 1 0 204.8z m0-51.2a51.2 51.2 0 1 0 0-102.4 51.2 51.2 0 0 0 0 102.4z" p-id="4540"/></svg>