<svg xmlns="http://www.w3.org/2000/svg" xmlns:xlink="http://www.w3.org/1999/xlink" width="200" height="200" class="icon" p-id="4314" t="1552895472381" version="1.1" viewBox="0 0 1024 1024"><defs><style type="text/css"/></defs><path fill="#000" d="M358.4 256h460.8v51.2H358.4zM358.4 665.6h460.8v51.2H358.4zM358.4 358.4h256v51.2H358.4zM358.4 768h256v51.2H358.4z" p-id="4315"/><path fill="#000" d="M153.6 409.6h51.2v204.8H153.6zM153.6 153.6h51.2v102.4H153.6zM153.6 768h51.2v102.4H153.6z" p-id="4316"/><path fill="#000" d="M179.2 435.2a102.4 102.4 0 1 1 0-204.8 102.4 102.4 0 0 1 0 204.8z m0-51.2a51.2 51.2 0 1 0 0-102.4 51.2 51.2 0 0 0 0 102.4zM179.2 793.6a102.4 102.4 0 1 1 0-204.8 102.4 102.4 0 0 1 0 204.8z m0-51.2a51.2 51.2 0 1 0 0-102.4 51.2 51.2 0 0 0 0 102.4z" p-id="4317"/></svg>