<svg xmlns="http://www.w3.org/2000/svg" xmlns:xlink="http://www.w3.org/1999/xlink" width="200" height="200" class="icon" p-id="5633" t="1552895574874" version="1.1" viewBox="0 0 1024 1024"><defs><style type="text/css"/></defs><path fill="#000" d="M512 819.2v-102.4H153.6v-51.2h358.4v-102.4H153.6v-51.2h358.4V409.6h51.2v102.4h358.4v51.2h-358.4v102.4h358.4v51.2h-358.4v102.4h307.2a51.2 51.2 0 0 0 51.2-51.2V409.6H153.6v358.4a51.2 51.2 0 0 0 51.2 51.2h307.2zM204.8 153.6h665.6a102.4 102.4 0 0 1 102.4 102.4v512a102.4 102.4 0 0 1-102.4 102.4H204.8a102.4 102.4 0 0 1-102.4-102.4V256a102.4 102.4 0 0 1 102.4-102.4zM153.6 358.4h768V256a51.2 51.2 0 0 0-51.2-51.2H204.8a51.2 51.2 0 0 0-51.2 51.2v102.4z" p-id="5634"/></svg>