<svg xmlns="http://www.w3.org/2000/svg" xmlns:xlink="http://www.w3.org/1999/xlink" width="200" height="200" class="icon" p-id="3763" t="1552895422855" version="1.1" viewBox="0 0 1024 1024"><defs><style type="text/css"/></defs><path fill="#000" d="M256 204.8a51.2 51.2 0 0 0-51.2 51.2v512a51.2 51.2 0 0 0 51.2 51.2h512a51.2 51.2 0 0 0 51.2-51.2V256a51.2 51.2 0 0 0-51.2-51.2H256z m0-51.2h512a102.4 102.4 0 0 1 102.4 102.4v512a102.4 102.4 0 0 1-102.4 102.4H256a102.4 102.4 0 0 1-102.4-102.4V256a102.4 102.4 0 0 1 102.4-102.4z" p-id="3764"/><path fill="#000" d="M698.368 341.1968l37.888 34.4064-296.448 326.1952L294.912 528.384l39.3216-32.768 107.1104 128.256z" p-id="3765"/></svg>