<svg xmlns="http://www.w3.org/2000/svg" xmlns:xlink="http://www.w3.org/1999/xlink" width="200" height="200" class="icon" p-id="516" t="1537779591600" version="1.1" viewBox="0 0 1024 1024"><defs><style type="text/css"/></defs><path fill="#bfbfbf" d="M666.417303 0.238878v0.853134c-4.265671 0-20.475222-1.706269-61.425668-0.853134H233.878228c-68.250741 0-123.704469 57.159996-123.704469 127.97014v767.820842c0 70.810144 55.453727 127.97014 123.704469 127.97014h557.096678c68.250741 0 123.704469-57.159996 123.704469-127.97014V256.179158L666.417303 0.238878z m0 75.92895L838.750425 256.179158h-110.907455c-34.125371 0-61.425667-29.006565-61.425667-63.98507V76.167828zM852.400573 896.02986c0 34.978505-27.300297 63.98507-61.425667 63.98507H233.878228c-34.125371 0-61.425667-29.006565-61.425667-63.98507V128.209018c0-34.978505 27.300297-63.98507 61.425667-63.98507h370.260273c-0.853134 76.782084 0.853134 127.97014 0.853134 127.97014 0 70.810144 55.453727 127.97014 123.704469 127.97014h123.704469V896.02986z" p-id="517"/><path fill="#bfbfbf" d="M562.334922 384.149298H460.811944v205.605359H356.729563L512 753.556437l155.270437-163.80178H563.188056z" p-id="518"/></svg>